<svg width="173" height="39" viewBox="0 0 173 39" fill="none" xmlns="http://www.w3.org/2000/svg">
<path fill-rule="evenodd" clip-rule="evenodd" d="M86.2333 38.827H0V0.000137329H86.2333V38.827Z" fill="#ED1C24"/>
<path fill-rule="evenodd" clip-rule="evenodd" d="M48.688 5.16275H54.0006L56.3606 22.3084L58.7172 5.16275H63.8835L59.3646 33.5883H53.3741L48.688 5.16275Z" fill="white"/>
<path fill-rule="evenodd" clip-rule="evenodd" d="M47.3824 22.5954L50.6162 33.5799L45.5125 33.5889L43.1426 24.3675C42.7511 24.4207 42.3446 24.4537 41.9219 24.464V33.588H36.8014V5.16202L41.9219 5.16931C47.8069 5.16588 50.5931 10.1543 50.6595 14.825C50.7024 17.8162 49.6429 20.7623 47.3824 22.5954ZM41.9214 10.2765C44.3054 10.2979 45.3195 12.3565 45.3452 14.5883C45.3714 16.8707 44.2724 19.3281 41.9214 19.3542V10.2765Z" fill="white"/>
<path fill-rule="evenodd" clip-rule="evenodd" d="M26.2255 5.16275C28.4937 5.16275 30.7624 5.16275 33.0302 5.16275L37.3215 33.5887H32.201L31.6586 29.2203H27.5976L27.0552 33.5887H21.9347L26.2255 5.16275ZM31.0952 24.6808L29.6283 12.5635L28.1614 24.6808H31.0952Z" fill="white"/>
<path fill-rule="evenodd" clip-rule="evenodd" d="M4.7007 5.16275H11.3065L13.5066 19.5132L15.7066 5.16275H22.3124V33.5883H17.1919V19.7297L15.0232 33.6372H11.99L9.8212 19.7297V33.5883H4.7007V5.16275Z" fill="white"/>
<path fill-rule="evenodd" clip-rule="evenodd" d="M79.0851 28.4348H83.4278V33.5883H73.9646V5.16275H79.0851V28.4348Z" fill="white"/>
<path fill-rule="evenodd" clip-rule="evenodd" d="M68.5225 28.4348H73.1109V33.5883H63.4016V5.16275H73.1109V10.4114H68.5225V16.76H73.1109V21.9774H68.5225V28.4348Z" fill="white"/>
<path fill-rule="evenodd" clip-rule="evenodd" d="M143.214 5.18478H146.49V33.6048H143.214V5.18478Z" fill="white"/>
<path fill-rule="evenodd" clip-rule="evenodd" d="M129.623 5.18478C131.396 5.18478 133.169 5.18478 134.942 5.18478C139.689 5.18478 141.336 7.54865 141.336 11.6435C141.336 16.8107 141.336 21.9788 141.336 27.1461C141.336 31.2409 139.689 33.6048 134.942 33.6048C133.169 33.6048 131.396 33.6048 129.623 33.6048V5.18478ZM137.961 10.9768C137.961 9.44687 137.138 8.18797 134.763 8.18797H132.898V30.6012H134.763C137.138 30.6012 137.961 29.3427 137.961 27.8124C137.961 22.2009 137.961 16.5886 137.961 10.9768Z" fill="white"/>
<path fill-rule="evenodd" clip-rule="evenodd" d="M116.033 5.18478H119.308V28.5786C119.308 29.4812 119.542 30.831 121.388 30.831H122.252C124.181 30.831 124.332 29.4808 124.332 28.5786C124.332 20.7812 124.332 12.9822 124.332 5.18478H127.607C127.607 13.0443 127.608 20.9034 127.608 28.763C127.608 32.303 125.602 33.8346 122.914 33.8346H120.821C118.133 33.8346 116.033 32.1894 116.033 28.763V5.18478H116.033Z" fill="white"/>
<path fill-rule="evenodd" clip-rule="evenodd" d="M151.728 28.5788C151.728 29.4814 151.969 30.8312 153.871 30.8312H154.762C156.749 30.8312 156.904 29.4809 156.904 28.5788C156.904 22.4571 156.904 16.3345 156.904 10.2124C156.904 9.30982 156.749 7.96001 154.762 7.96001H153.871C151.969 7.96001 151.728 9.30982 151.728 10.2124C151.728 16.3341 151.728 22.4567 151.728 28.5788ZM160.28 28.7632C160.28 32.3032 158.213 33.8348 155.443 33.8348H153.287C150.518 33.8348 148.353 32.1895 148.353 28.7632C148.353 22.518 148.353 16.2728 148.353 10.0276C148.353 6.60121 150.518 4.95598 153.287 4.95598H155.444C158.213 4.95598 160.28 6.48758 160.28 10.0276C160.28 16.2728 160.28 22.518 160.28 28.7632Z" fill="white"/>
<path fill-rule="evenodd" clip-rule="evenodd" d="M110.59 8.23042V33.6048H107.314V8.23042H103.053V5.18478H114.852V8.23042H110.59Z" fill="white"/>
<path fill-rule="evenodd" clip-rule="evenodd" d="M166.468 4.93541C163.701 4.93541 161.544 6.60637 161.544 10.0392C161.544 11.0764 161.544 12.1141 161.544 13.1508C161.544 15.3968 161.919 16.5489 162.756 17.5891C163.605 18.6452 166.049 20.2112 168.038 21.6999C169.222 22.5857 169.663 23.2418 169.663 24.246C169.663 25.7008 169.663 27.1552 169.663 28.6105C169.663 29.5131 169.574 30.9191 167.675 30.9191H166.877C164.892 30.9191 164.785 29.5127 164.785 28.6105V24.709L161.576 24.7009V28.7872C161.576 32.3345 163.509 33.8991 166.422 33.8991H168.042C170.994 33.8991 172.976 32.28 172.976 28.7752C172.976 27.2719 172.976 25.7686 172.976 24.2657C172.976 21.7466 172.061 20.6133 170.763 19.5543C169.512 18.5333 167.44 17.1634 166.157 16.1549C165.189 15.3929 164.919 14.9504 164.919 13.6144C164.919 12.4845 164.919 11.3543 164.919 10.224C164.919 9.31927 165.016 7.93602 166.918 7.93602H167.571C169.559 7.93602 169.591 9.32184 169.591 10.224V12.6642H172.966V10.0392C172.966 6.49145 170.856 4.93541 168.088 4.93541H166.468Z" fill="white"/>
<path fill-rule="evenodd" clip-rule="evenodd" d="M95.931 4.93541C93.1649 4.93541 91.0077 6.60637 91.0077 10.0392C91.0077 11.0764 91.0077 12.1141 91.0077 13.1508C91.0077 15.3968 91.3829 16.5489 92.2191 17.5891C93.0685 18.6452 95.5121 20.2112 97.5016 21.6999C98.6855 22.5857 99.1263 23.2418 99.1263 24.246C99.1263 25.7008 99.1263 27.1552 99.1263 28.6105C99.1263 29.5131 99.0384 30.9191 97.138 30.9191H96.3405C94.3552 30.9191 94.2489 29.5127 94.2489 28.6105V24.709L91.0395 24.7009V28.7872C91.0395 32.3345 92.9728 33.8991 95.8856 33.8991H97.5055C100.457 33.8991 102.439 32.28 102.439 28.7752C102.439 27.2719 102.439 25.7686 102.439 24.2657C102.439 21.7466 101.524 20.6133 100.226 19.5543C98.9754 18.5333 96.9039 17.1634 95.621 16.1549C94.6519 15.3929 94.3827 14.9504 94.3827 13.6144C94.3827 12.4845 94.3827 11.3543 94.3827 10.224C94.3827 9.31927 94.4792 7.93602 96.3812 7.93602H97.0347C99.0221 7.93602 99.0542 9.32184 99.0542 10.224V12.6642H102.429V10.0392C102.429 6.49145 100.32 4.93541 97.5514 4.93541H95.931Z" fill="white"/>
<path fill-rule="evenodd" clip-rule="evenodd" d="M90.952 0H173V1.54533H90.952V0Z" fill="white"/>
<path fill-rule="evenodd" clip-rule="evenodd" d="M90.952 37.2818H173V38.8271H90.952V37.2818Z" fill="white"/>
</svg>
